<?xml version="1.0" encoding="UTF-8" standalone="no"?>
<!DOCTYPE svg PUBLIC "-//W3C//DTD SVG 1.1//EN" "http://www.w3.org/Graphics/SVG/1.1/DTD/svg11.dtd">
<svg xmlns="http://www.w3.org/2000/svg" version="1.1" viewBox="0.00 0.00 1448.00 1448.00">
<g stroke-width="2.00" fill="none" stroke-linecap="butt">
<path stroke="#bcdd82" vector-effect="non-scaling-stroke" d="
  M 515.48 597.74
  Q 498.68 617.68 482.64 638.34
  C 473.82 649.70 466.47 656.16 452.25 656.20
  C 439.32 656.24 420.72 655.71 405.24 655.75
  Q 370.20 655.85 335.16 656.07
  Q 334.69 656.08 334.27 655.85
  C 331.20 654.17 315.55 655.24 314.06 655.30
  C 279.34 656.66 244.76 658.00 209.94 658.58
  C 203.73 658.69 182.21 660.74 181.00 668.73
  Q 180.42 672.59 181.97 679.79
  C 183.93 688.94 187.82 694.66 196.77 698.07
  C 203.97 700.82 213.91 701.42 220.50 696.67
  Q 221.88 695.68 224.71 692.04
  Q 231.21 683.69 242.25 683.47
  Q 324.06 681.83 438.37 680.93
  C 442.17 680.90 446.22 683.06 444.72 687.43
  C 443.75 690.23 440.19 693.58 438.45 696.17
  Q 413.39 733.42 387.90 770.37
  Q 385.19 774.30 383.50 778.73"
/>
<path stroke="#b2cc84" vector-effect="non-scaling-stroke" d="
  M 383.50 778.73
  C 379.04 790.52 379.14 804.17 381.33 816.66
  Q 382.16 821.35 386.34 821.58
  C 389.15 821.73 391.76 818.90 393.16 816.89
  Q 402.83 803.09 418.43 778.98"
/>
<path stroke="#bcdd82" vector-effect="non-scaling-stroke" d="
  M 418.43 778.98
  Q 449.66 732.97 483.75 689.01
  C 488.68 682.65 494.43 680.53 502.71 680.80
  Q 553.44 682.41 604.18 683.21
  C 607.24 683.26 610.57 683.30 612.56 686.04
  Q 612.87 686.46 612.85 686.98
  C 612.66 690.77 611.09 692.63 609.33 695.70
  Q 582.82 741.86 553.70 786.43"
/>
<path stroke="#b2cc84" vector-effect="non-scaling-stroke" d="
  M 553.70 786.43
  L 493.09 880.67"
/>
<path stroke="#a7ba86" vector-effect="non-scaling-stroke" d="
  M 493.09 880.67
  Q 480.68 899.77 458.67 934.42
  Q 446.78 953.15 438.92 973.19
  Q 435.45 982.03 435.12 988.19
  C 434.41 1001.75 440.41 1020.05 456.82 1020.66
  C 465.51 1020.98 471.90 1016.23 476.94 1009.42
  C 486.74 996.20 492.81 986.17 502.38 969.94
  Q 527.54 927.27 552.57 884.51"
/>
<path stroke="#b2cc84" vector-effect="non-scaling-stroke" d="
  M 552.57 884.51
  L 609.96 785.00"
/>
<path stroke="#bcdd82" vector-effect="non-scaling-stroke" d="
  M 609.96 785.00
  Q 662.84 692.51 710.45 597.22
  Q 715.00 588.11 719.16 579.08"
/>
<path stroke="#cbf680" vector-effect="non-scaling-stroke" d="
  M 719.16 579.08
  Q 743.09 527.83 745.19 471.59
  C 746.30 441.89 727.16 423.87 697.59 436.89
  C 678.41 445.34 661.47 456.14 645.25 469.32
  Q 574.15 527.07 515.48 597.74"
/>
<path stroke="#88d403" vector-effect="non-scaling-stroke" d="
  M 719.16 579.08
  Q 717.79 578.30 718.78 576.60
  Q 719.74 574.96 717.84 574.97
  Q 697.85 575.04 678.62 574.98
  Q 675.46 574.97 675.39 574.99
  C 673.97 575.30 672.58 578.23 671.96 578.20"
/>
<path stroke="#cbf680" vector-effect="non-scaling-stroke" d="
  M 671.96 578.20
  C 685.87 549.25 698.40 520.12 704.62 488.43
  C 705.47 484.14 707.47 472.97 698.19 477.69
  Q 685.14 484.34 673.81 493.59
  Q 615.05 541.56 563.10 596.80"
/>
<path stroke="#88d403" vector-effect="non-scaling-stroke" d="
  M 563.10 596.80
  Q 562.79 595.71 563.19 594.85
  Q 563.50 594.17 562.91 594.63
  L 561.79 595.49
  A 1.21 1.21 0.0 0 1 561.04 595.75
  L 521.10 595.75
  Q 520.66 595.75 520.38 595.41
  L 520.15 595.13
  Q 519.86 594.77 519.47 595.03
  L 515.48 597.74"
/>
<path stroke="#6faa07" vector-effect="non-scaling-stroke" d="
  M 609.96 785.00
  Q 608.74 785.79 607.60 784.38
  Q 607.28 783.99 606.78 783.99
  Q 583.58 784.02 560.38 783.99
  C 559.07 783.98 556.90 782.94 556.02 785.01
  Q 555.43 786.40 553.70 786.43"
/>
<path stroke="#6faa07" vector-effect="non-scaling-stroke" d="
  M 418.43 778.98
  Q 418.54 778.00 416.82 778.96
  A 0.39 0.39 0.0 0 1 416.25 778.67
  L 416.21 778.40
  Q 416.15 777.97 415.72 777.98
  C 405.07 778.05 386.64 777.31 385.08 778.55
  Q 384.75 778.81 384.34 778.78
  L 383.50 778.73"
/>
<path stroke="#bcdd82" vector-effect="non-scaling-stroke" d="
  M 671.96 578.20
  Q 657.05 608.81 631.79 656.80
  C 628.84 662.41 625.40 663.43 619.16 662.06
  C 593.05 656.34 566.61 657.65 540.07 656.98
  C 532.43 656.78 520.67 657.86 519.21 650.76
  C 518.63 647.96 520.07 645.41 521.83 643.33
  Q 541.89 619.56 563.10 596.80"
/>
<path stroke="#5a870a" vector-effect="non-scaling-stroke" d="
  M 552.57 884.51
  Q 552.20 883.59 552.73 882.94
  Q 553.04 882.55 552.65 882.24
  Q 551.98 881.71 551.23 881.25
  Q 550.84 881.00 550.37 881.00
  Q 524.00 881.00 497.63 880.99
  C 496.60 880.99 495.38 880.18 494.30 881.46
  Q 493.96 881.85 493.65 881.43
  L 493.09 880.67"
/>
<path stroke="#808080" vector-effect="non-scaling-stroke" d="
  M 430.48 603.44
  A 3.72 3.72 0.0 0 0 426.76 599.72
  A 3.72 3.72 0.0 0 0 423.04 603.44
  A 3.72 3.72 0.0 0 0 426.76 607.16
  A 3.72 3.72 0.0 0 0 430.48 603.44"
/>
<path stroke="#808080" vector-effect="non-scaling-stroke" d="
  M 410.50 635.75
  L 410.50 638.00
  Q 410.50 638.50 411.00 638.50
  L 415.59 638.50
  Q 416.25 638.50 416.25 637.84
  L 416.25 601.75
  Q 416.25 601.25 415.75 601.25
  L 411.00 601.25
  Q 410.50 601.25 410.50 601.75
  L 410.50 613.49
  Q 410.50 614.22 409.93 613.76
  C 398.91 604.69 385.33 614.65 388.00 627.58
  C 390.26 638.54 400.65 642.50 409.99 635.50
  Q 410.50 635.11 410.50 635.75"
/>
<path stroke="#808080" vector-effect="non-scaling-stroke" d="
  M 325.46 629.91
  C 324.08 635.63 314.48 635.34 313.40 629.28
  Q 313.31 628.75 312.77 628.75
  L 307.49 628.75
  Q 306.89 628.75 306.97 629.35
  C 308.42 640.86 326.29 642.42 330.68 632.52
  C 335.52 621.62 323.87 619.58 316.67 617.00
  C 306.42 613.33 319.91 601.70 324.80 612.26
  Q 325.02 612.75 325.56 612.75
  L 330.69 612.75
  A 0.52 0.52 0.0 0 0 331.20 612.16
  C 329.33 599.63 308.07 599.89 307.21 612.49
  C 306.28 626.12 327.71 620.65 325.46 629.91"
/>
<path stroke="#808080" vector-effect="non-scaling-stroke" d="
  M 339.17 616.13
  Q 339.41 622.94 339.29 629.75
  C 339.12 638.59 343.93 638.95 351.31 638.47
  Q 351.76 638.44 351.76 637.99
  L 351.76 634.25
  Q 351.76 633.75 351.26 633.75
  C 348.83 633.79 345.18 634.39 345.10 630.80
  Q 344.91 622.05 345.08 616.15
  Q 345.10 615.50 345.75 615.50
  L 351.19 615.50
  Q 351.81 615.50 351.80 614.88
  L 351.74 611.28
  Q 351.73 610.75 351.21 610.75
  L 345.49 610.75
  A 0.51 0.51 0.0 0 1 344.98 610.24
  L 345.04 604.36
  Q 345.04 603.75 344.43 603.75
  L 339.75 603.75
  Q 339.25 603.75 339.25 604.25
  L 339.25 610.12
  Q 339.25 610.75 338.63 610.75
  L 336.63 610.75
  Q 336.00 610.75 336.00 611.38
  L 336.00 615.10
  Q 336.00 615.62 336.52 615.59
  L 338.45 615.47
  Q 339.14 615.43 339.17 616.13"
/>
<path stroke="#cbf680" vector-effect="non-scaling-stroke" d="
  M 897.69 651.31
  C 907.74 658.12 922.54 654.26 929.75 644.65
  C 937.92 633.75 934.95 618.37 924.05 610.54
  C 907.48 598.65 888.27 612.68 888.86 631.23
  C 889.11 638.78 891.34 647.02 897.69 651.31"
/>
<path stroke="#808080" vector-effect="non-scaling-stroke" d="
  M 463.85 624.67
  A 14.43 14.43 0.0 0 0 449.42 610.24
  A 14.43 14.43 0.0 0 0 434.99 624.67
  A 14.43 14.43 0.0 0 0 449.42 639.10
  A 14.43 14.43 0.0 0 0 463.85 624.67"
/>
<path stroke="#808080" vector-effect="non-scaling-stroke" d="
  M 376.40 636.48
  L 376.27 637.89
  A 0.61 0.60 -87.9 0 0 376.88 638.55
  L 381.76 638.48
  Q 382.25 638.47 382.25 637.99
  L 382.25 611.38
  Q 382.25 610.75 381.62 610.75
  L 376.82 610.75
  Q 376.26 610.75 376.26 611.31
  Q 376.24 618.46 376.25 625.60
  C 376.27 637.02 362.53 636.08 362.71 626.74
  Q 362.86 619.08 362.60 611.35
  Q 362.58 610.75 361.98 610.75
  L 357.27 610.75
  Q 356.77 610.75 356.77 611.25
  Q 356.71 619.39 356.76 627.48
  C 356.83 638.10 367.94 642.36 375.84 636.18
  A 0.35 0.34 -16.4 0 1 376.40 636.48"
/>
<path stroke="#808080" vector-effect="non-scaling-stroke" d="
  M 429.75 611.08
  A 0.33 0.33 0.0 0 0 429.42 610.75
  L 424.08 610.75
  A 0.33 0.33 0.0 0 0 423.75 611.08
  L 423.75 638.24
  A 0.33 0.33 0.0 0 0 424.08 638.57
  L 429.42 638.57
  A 0.33 0.33 0.0 0 0 429.75 638.24
  L 429.75 611.08"
/>
<path stroke="#bcdd82" vector-effect="non-scaling-stroke" d="
  M 725.97 726.48
  C 732.74 731.96 733.34 738.43 730.88 746.83
  C 725.17 766.26 717.65 782.57 709.04 805.17"
/>
<path stroke="#b2cc84" vector-effect="non-scaling-stroke" d="
  M 709.04 805.17
  Q 701.80 824.21 697.14 844.06"
/>
<path stroke="#a7ba86" vector-effect="non-scaling-stroke" d="
  M 697.14 844.06
  C 693.91 856.49 691.78 872.39 695.96 883.98
  C 702.13 901.07 722.01 911.25 739.75 904.22
  C 749.08 900.51 755.83 894.32 763.80 887.39
  C 780.78 872.63 794.86 854.42 806.27 835.00"
/>
<path stroke="#b2cc84" vector-effect="non-scaling-stroke" d="
  M 806.27 835.00
  L 818.77 814.23"
/>
<path stroke="#bcdd82" vector-effect="non-scaling-stroke" d="
  M 818.77 814.23
  Q 830.13 795.10 841.46 775.95
  Q 844.18 771.35 850.32 770.32
  Q 850.84 770.24 850.82 770.76
  Q 850.46 785.99 851.19 800.95"
/>
<path stroke="#b2cc84" vector-effect="non-scaling-stroke" d="
  M 851.19 800.95
  C 852.88 837.75 871.61 860.65 908.96 837.01
  Q 935.87 819.98 959.62 798.58"
/>
<path stroke="#bcdd82" vector-effect="non-scaling-stroke" d="
  M 959.62 798.58
  Q 981.19 779.44 1000.85 758.32
  C 1006.57 752.18 1008.24 758.93 1009.87 763.20
  Q 1014.99 776.57 1029.50 776.68
  C 1048.20 776.81 1059.32 767.92 1072.93 755.03
  Q 1085.03 743.57 1095.38 730.54"
/>
<path stroke="#cbf680" vector-effect="non-scaling-stroke" d="
  M 1095.38 730.54
  C 1097.14 729.09 1099.09 726.02 1101.47 729.04"
/>
<path stroke="#bcdd82" vector-effect="non-scaling-stroke" d="
  M 1101.47 729.04
  C 1102.85 736.96 1102.78 744.56 1102.94 752.55
  Q 1103.25 767.03 1108.38 780.29"
/>
<path stroke="#bcdd82" vector-effect="non-scaling-stroke" d="
  M 1108.38 780.29
  C 1122.82 814.90 1169.24 809.26 1194.99 794.77
  C 1221.58 779.80 1244.63 755.81 1263.49 732.48
  C 1265.70 729.73 1268.29 726.87 1269.25 723.75
  C 1271.69 715.73 1261.99 707.10 1255.66 715.68
  C 1238.19 739.39 1211.61 760.55 1185.90 775.96
  C 1174.65 782.70 1141.90 795.69 1133.83 778.26"
/>
<path stroke="#bcdd82" vector-effect="non-scaling-stroke" d="
  M 1133.83 778.26
  Q 1132.32 773.59 1132.31 770.19
  Q 1132.25 747.48 1131.00 726.37"
/>
<path stroke="#cbf680" vector-effect="non-scaling-stroke" d="
  M 1131.00 726.37
  Q 1130.34 713.74 1129.66 702.68
  Q 1129.06 692.88 1121.11 687.45
  C 1113.90 682.52 1106.18 686.99 1100.55 692.56
  C 1092.68 700.34 1086.47 707.79 1079.58 717.46
  Q 1075.80 722.77 1071.72 727.10"
/>
<path stroke="#bcdd82" vector-effect="non-scaling-stroke" d="
  M 1071.72 727.10
  C 1068.71 730.12 1060.28 738.12 1056.26 737.70
  C 1048.23 736.86 1051.95 729.62 1053.71 725.39"
/>
<path stroke="#cbf680" vector-effect="non-scaling-stroke" d="
  M 1053.71 725.39
  Q 1060.61 708.94 1077.19 698.91
  C 1084.35 694.58 1094.60 689.73 1088.38 679.97
  C 1085.12 674.85 1076.91 673.46 1071.27 673.88
  Q 1066.81 674.22 1061.12 676.96
  C 1039.37 687.44 1019.78 702.26 1010.02 725.03"
/>
<path stroke="#bcdd82" vector-effect="non-scaling-stroke" d="
  M 1010.02 725.03
  Q 1006.99 732.19 1005.51 742.24
  C 1005.20 744.33 1003.48 745.22 1001.38 745.26
  C 981.88 745.65 976.58 763.05 962.78 775.14
  Q 950.66 785.77 938.45 796.54"
/>
<path stroke="#b2cc84" vector-effect="non-scaling-stroke" d="
  M 938.45 796.54
  C 925.16 807.78 911.69 817.02 895.20 822.62
  C 887.84 825.11 878.79 827.07 877.13 817.17
  Q 875.97 810.25 876.85 802.92"
/>
<path stroke="#bcdd82" vector-effect="non-scaling-stroke" d="
  M 876.85 802.92
  Q 879.07 785.95 885.90 769.92
  Q 894.33 750.13 901.49 730.56"
/>
<path stroke="#cbf680" vector-effect="non-scaling-stroke" d="
  M 901.49 730.56
  C 906.60 717.04 909.66 697.75 895.44 689.72
  C 871.48 676.18 861.49 706.36 859.68 723.24
  C 859.46 725.34 858.83 727.25 858.21 729.21"
/>
<path stroke="#bcdd82" vector-effect="non-scaling-stroke" d="
  M 858.21 729.21
  C 857.04 731.71 855.87 733.52 853.25 734.93
  C 842.63 740.64 838.80 747.19 830.96 759.15
  Q 813.82 785.31 796.50 811.61"
/>
<path stroke="#b2cc84" vector-effect="non-scaling-stroke" d="
  M 796.50 811.61
  L 781.45 833.69"
/>
<path stroke="#a7ba86" vector-effect="non-scaling-stroke" d="
  M 781.45 833.69
  C 768.47 852.97 757.12 866.61 739.40 880.90
  C 732.30 886.63 726.71 879.91 727.74 872.75
  Q 730.01 857.01 733.63 844.25"
/>
<path stroke="#b2cc84" vector-effect="non-scaling-stroke" d="
  M 733.63 844.25
  L 747.32 805.31"
/>
<path stroke="#bcdd82" vector-effect="non-scaling-stroke" d="
  M 747.32 805.31
  Q 756.20 783.01 761.94 759.24
  C 765.49 744.56 763.50 730.32 748.14 723.71"
/>
<path stroke="#cbf680" vector-effect="non-scaling-stroke" d="
  M 748.14 723.71
  C 731.23 713.91 735.62 704.47 744.47 690.92
  C 758.85 668.89 735.36 648.40 713.90 656.70
  Q 701.10 661.65 699.62 675.50
  C 697.67 693.64 702.20 711.05 718.15 721.53
  Q 722.01 724.07 725.97 726.48"
/>
<path stroke="#88d403" vector-effect="non-scaling-stroke" d="
  M 748.14 723.71
  Q 746.29 724.98 744.94 724.98
  Q 736.32 725.01 727.64 725.00
  Q 727.13 725.00 726.89 725.44
  Q 726.45 726.23 725.97 726.48"
/>
<path stroke="#6faa07" vector-effect="non-scaling-stroke" d="
  M 747.32 805.31
  L 709.04 805.17"
/>
<path stroke="#5a870a" vector-effect="non-scaling-stroke" d="
  M 733.63 844.25
  L 697.14 844.06"
/>
<path stroke="#5a870a" vector-effect="non-scaling-stroke" d="
  M 806.27 835.00
  Q 805.34 834.50 805.73 833.68
  Q 805.94 833.22 805.44 833.20
  C 802.55 833.08 784.55 832.27 783.28 833.21
  Q 782.98 833.44 782.61 833.50
  L 781.45 833.69"
/>
<path stroke="#6faa07" vector-effect="non-scaling-stroke" d="
  M 876.85 802.92
  Q 876.00 801.61 875.10 801.63
  Q 864.68 801.86 854.25 801.72
  Q 853.77 801.71 853.40 802.02
  L 852.84 802.47
  Q 852.39 802.84 852.07 802.35
  L 851.19 800.95"
/>
<path stroke="#6faa07" vector-effect="non-scaling-stroke" d="
  M 818.77 814.23
  L 818.48 813.02
  Q 818.39 812.61 818.01 812.80
  Q 817.40 813.10 817.10 812.38
  Q 816.90 811.89 816.37 811.91
  Q 806.42 812.30 796.50 811.61"
/>
<path stroke="#88d403" vector-effect="non-scaling-stroke" d="
  M 901.49 730.56
  L 900.48 727.58
  Q 900.29 727.02 899.70 727.02
  L 860.66 726.95
  A 0.76 0.75 12.0 0 0 859.97 727.39
  Q 859.37 728.71 858.21 729.21"
/>
<path stroke="#6faa07" vector-effect="non-scaling-stroke" d="
  M 959.62 798.58
  Q 959.24 797.65 959.80 796.53
  Q 960.05 796.01 959.48 796.01
  C 954.10 795.99 948.57 796.38 943.25 795.51
  Q 941.15 795.16 938.45 796.54"
/>
<path stroke="#88d403" vector-effect="non-scaling-stroke" d="
  M 1053.71 725.39
  Q 1031.81 724.69 1010.02 725.03"
/>
<path stroke="#88d403" vector-effect="non-scaling-stroke" d="
  M 1131.00 726.37
  Q 1117.89 727.43 1104.48 726.99
  C 1102.90 726.94 1101.97 727.66 1101.47 729.04"
/>
<path stroke="#88d403" vector-effect="non-scaling-stroke" d="
  M 1095.38 730.54
  Q 1095.93 728.97 1095.63 727.62
  Q 1095.52 727.10 1094.99 727.10
  L 1071.72 727.10"
/>
<path stroke="#79bb05" vector-effect="non-scaling-stroke" d="
  M 1108.38 780.29
  Q 1109.48 779.77 1109.27 779.62
  A 0.90 0.88 62.2 0 1 1109.75 778.00
  L 1132.53 778.00
  Q 1132.57 778.00 1132.59 778.03
  Q 1132.67 778.16 1132.77 778.29
  Q 1133.01 778.57 1133.35 778.44
  L 1133.83 778.26"
/>
<path stroke="#808080" vector-effect="non-scaling-stroke" d="
  M 402.3980 633.8964
  A 9.24 8.33 88.4 0 0 410.4668 624.4274
  A 9.24 8.33 88.4 0 0 401.8820 615.4236
  A 9.24 8.33 88.4 0 0 393.8132 624.8926
  A 9.24 8.33 88.4 0 0 402.3980 633.8964"
/>
<path stroke="#808080" vector-effect="non-scaling-stroke" d="
  M 449.0988 633.9354
  A 9.27 8.26 91.8 0 0 457.6459 624.9295
  A 9.27 8.26 91.8 0 0 449.6812 615.4046
  A 9.27 8.26 91.8 0 0 441.1341 624.4105
  A 9.27 8.26 91.8 0 0 449.0988 633.9354"
/>
</g>
<path fill="#ffffff" d="
  M 0.00 0.00
  L 1448.00 0.00
  L 1448.00 1448.00
  L 0.00 1448.00
  L 0.00 0.00
  Z
  M 515.48 597.74
  Q 498.68 617.68 482.64 638.34
  C 473.82 649.70 466.47 656.16 452.25 656.20
  C 439.32 656.24 420.72 655.71 405.24 655.75
  Q 370.20 655.85 335.16 656.07
  Q 334.69 656.08 334.27 655.85
  C 331.20 654.17 315.55 655.24 314.06 655.30
  C 279.34 656.66 244.76 658.00 209.94 658.58
  C 203.73 658.69 182.21 660.74 181.00 668.73
  Q 180.42 672.59 181.97 679.79
  C 183.93 688.94 187.82 694.66 196.77 698.07
  C 203.97 700.82 213.91 701.42 220.50 696.67
  Q 221.88 695.68 224.71 692.04
  Q 231.21 683.69 242.25 683.47
  Q 324.06 681.83 438.37 680.93
  C 442.17 680.90 446.22 683.06 444.72 687.43
  C 443.75 690.23 440.19 693.58 438.45 696.17
  Q 413.39 733.42 387.90 770.37
  Q 385.19 774.30 383.50 778.73
  C 379.04 790.52 379.14 804.17 381.33 816.66
  Q 382.16 821.35 386.34 821.58
  C 389.15 821.73 391.76 818.90 393.16 816.89
  Q 402.83 803.09 418.43 778.98
  Q 449.66 732.97 483.75 689.01
  C 488.68 682.65 494.43 680.53 502.71 680.80
  Q 553.44 682.41 604.18 683.21
  C 607.24 683.26 610.57 683.30 612.56 686.04
  Q 612.87 686.46 612.85 686.98
  C 612.66 690.77 611.09 692.63 609.33 695.70
  Q 582.82 741.86 553.70 786.43
  L 493.09 880.67
  Q 480.68 899.77 458.67 934.42
  Q 446.78 953.15 438.92 973.19
  Q 435.45 982.03 435.12 988.19
  C 434.41 1001.75 440.41 1020.05 456.82 1020.66
  C 465.51 1020.98 471.90 1016.23 476.94 1009.42
  C 486.74 996.20 492.81 986.17 502.38 969.94
  Q 527.54 927.27 552.57 884.51
  L 609.96 785.00
  Q 662.84 692.51 710.45 597.22
  Q 715.00 588.11 719.16 579.08
  Q 743.09 527.83 745.19 471.59
  C 746.30 441.89 727.16 423.87 697.59 436.89
  C 678.41 445.34 661.47 456.14 645.25 469.32
  Q 574.15 527.07 515.48 597.74
  Z
  M 430.48 603.44
  A 3.72 3.72 0.0 0 0 426.76 599.72
  A 3.72 3.72 0.0 0 0 423.04 603.44
  A 3.72 3.72 0.0 0 0 426.76 607.16
  A 3.72 3.72 0.0 0 0 430.48 603.44
  Z
  M 410.50 635.75
  L 410.50 638.00
  Q 410.50 638.50 411.00 638.50
  L 415.59 638.50
  Q 416.25 638.50 416.25 637.84
  L 416.25 601.75
  Q 416.25 601.25 415.75 601.25
  L 411.00 601.25
  Q 410.50 601.25 410.50 601.75
  L 410.50 613.49
  Q 410.50 614.22 409.93 613.76
  C 398.91 604.69 385.33 614.65 388.00 627.58
  C 390.26 638.54 400.65 642.50 409.99 635.50
  Q 410.50 635.11 410.50 635.75
  Z
  M 325.46 629.91
  C 324.08 635.63 314.48 635.34 313.40 629.28
  Q 313.31 628.75 312.77 628.75
  L 307.49 628.75
  Q 306.89 628.75 306.97 629.35
  C 308.42 640.86 326.29 642.42 330.68 632.52
  C 335.52 621.62 323.87 619.58 316.67 617.00
  C 306.42 613.33 319.91 601.70 324.80 612.26
  Q 325.02 612.75 325.56 612.75
  L 330.69 612.75
  A 0.52 0.52 0.0 0 0 331.20 612.16
  C 329.33 599.63 308.07 599.89 307.21 612.49
  C 306.28 626.12 327.71 620.65 325.46 629.91
  Z
  M 339.17 616.13
  Q 339.41 622.94 339.29 629.75
  C 339.12 638.59 343.93 638.95 351.31 638.47
  Q 351.76 638.44 351.76 637.99
  L 351.76 634.25
  Q 351.76 633.75 351.26 633.75
  C 348.83 633.79 345.18 634.39 345.10 630.80
  Q 344.91 622.05 345.08 616.15
  Q 345.10 615.50 345.75 615.50
  L 351.19 615.50
  Q 351.81 615.50 351.80 614.88
  L 351.74 611.28
  Q 351.73 610.75 351.21 610.75
  L 345.49 610.75
  A 0.51 0.51 0.0 0 1 344.98 610.24
  L 345.04 604.36
  Q 345.04 603.75 344.43 603.75
  L 339.75 603.75
  Q 339.25 603.75 339.25 604.25
  L 339.25 610.12
  Q 339.25 610.75 338.63 610.75
  L 336.63 610.75
  Q 336.00 610.75 336.00 611.38
  L 336.00 615.10
  Q 336.00 615.62 336.52 615.59
  L 338.45 615.47
  Q 339.14 615.43 339.17 616.13
  Z
  M 897.69 651.31
  C 907.74 658.12 922.54 654.26 929.75 644.65
  C 937.92 633.75 934.95 618.37 924.05 610.54
  C 907.48 598.65 888.27 612.68 888.86 631.23
  C 889.11 638.78 891.34 647.02 897.69 651.31
  Z
  M 463.85 624.67
  A 14.43 14.43 0.0 0 0 449.42 610.24
  A 14.43 14.43 0.0 0 0 434.99 624.67
  A 14.43 14.43 0.0 0 0 449.42 639.10
  A 14.43 14.43 0.0 0 0 463.85 624.67
  Z
  M 376.40 636.48
  L 376.27 637.89
  A 0.61 0.60 -87.9 0 0 376.88 638.55
  L 381.76 638.48
  Q 382.25 638.47 382.25 637.99
  L 382.25 611.38
  Q 382.25 610.75 381.62 610.75
  L 376.82 610.75
  Q 376.26 610.75 376.26 611.31
  Q 376.24 618.46 376.25 625.60
  C 376.27 637.02 362.53 636.08 362.71 626.74
  Q 362.86 619.08 362.60 611.35
  Q 362.58 610.75 361.98 610.75
  L 357.27 610.75
  Q 356.77 610.75 356.77 611.25
  Q 356.71 619.39 356.76 627.48
  C 356.83 638.10 367.94 642.36 375.84 636.18
  A 0.35 0.34 -16.4 0 1 376.40 636.48
  Z
  M 429.75 611.08
  A 0.33 0.33 0.0 0 0 429.42 610.75
  L 424.08 610.75
  A 0.33 0.33 0.0 0 0 423.75 611.08
  L 423.75 638.24
  A 0.33 0.33 0.0 0 0 424.08 638.57
  L 429.42 638.57
  A 0.33 0.33 0.0 0 0 429.75 638.24
  L 429.75 611.08
  Z
  M 725.97 726.48
  C 732.74 731.96 733.34 738.43 730.88 746.83
  C 725.17 766.26 717.65 782.57 709.04 805.17
  Q 701.80 824.21 697.14 844.06
  C 693.91 856.49 691.78 872.39 695.96 883.98
  C 702.13 901.07 722.01 911.25 739.75 904.22
  C 749.08 900.51 755.83 894.32 763.80 887.39
  C 780.78 872.63 794.86 854.42 806.27 835.00
  L 818.77 814.23
  Q 830.13 795.10 841.46 775.95
  Q 844.18 771.35 850.32 770.32
  Q 850.84 770.24 850.82 770.76
  Q 850.46 785.99 851.19 800.95
  C 852.88 837.75 871.61 860.65 908.96 837.01
  Q 935.87 819.98 959.62 798.58
  Q 981.19 779.44 1000.85 758.32
  C 1006.57 752.18 1008.24 758.93 1009.87 763.20
  Q 1014.99 776.57 1029.50 776.68
  C 1048.20 776.81 1059.32 767.92 1072.93 755.03
  Q 1085.03 743.57 1095.38 730.54
  C 1097.14 729.09 1099.09 726.02 1101.47 729.04
  C 1102.85 736.96 1102.78 744.56 1102.94 752.55
  Q 1103.25 767.03 1108.38 780.29
  C 1122.82 814.90 1169.24 809.26 1194.99 794.77
  C 1221.58 779.80 1244.63 755.81 1263.49 732.48
  C 1265.70 729.73 1268.29 726.87 1269.25 723.75
  C 1271.69 715.73 1261.99 707.10 1255.66 715.68
  C 1238.19 739.39 1211.61 760.55 1185.90 775.96
  C 1174.65 782.70 1141.90 795.69 1133.83 778.26
  Q 1132.32 773.59 1132.31 770.19
  Q 1132.25 747.48 1131.00 726.37
  Q 1130.34 713.74 1129.66 702.68
  Q 1129.06 692.88 1121.11 687.45
  C 1113.90 682.52 1106.18 686.99 1100.55 692.56
  C 1092.68 700.34 1086.47 707.79 1079.58 717.46
  Q 1075.80 722.77 1071.72 727.10
  C 1068.71 730.12 1060.28 738.12 1056.26 737.70
  C 1048.23 736.86 1051.95 729.62 1053.71 725.39
  Q 1060.61 708.94 1077.19 698.91
  C 1084.35 694.58 1094.60 689.73 1088.38 679.97
  C 1085.12 674.85 1076.91 673.46 1071.27 673.88
  Q 1066.81 674.22 1061.12 676.96
  C 1039.37 687.44 1019.78 702.26 1010.02 725.03
  Q 1006.99 732.19 1005.51 742.24
  C 1005.20 744.33 1003.48 745.22 1001.38 745.26
  C 981.88 745.65 976.58 763.05 962.78 775.14
  Q 950.66 785.77 938.45 796.54
  C 925.16 807.78 911.69 817.02 895.20 822.62
  C 887.84 825.11 878.79 827.07 877.13 817.17
  Q 875.97 810.25 876.85 802.92
  Q 879.07 785.95 885.90 769.92
  Q 894.33 750.13 901.49 730.56
  C 906.60 717.04 909.66 697.75 895.44 689.72
  C 871.48 676.18 861.49 706.36 859.68 723.24
  C 859.46 725.34 858.83 727.25 858.21 729.21
  C 857.04 731.71 855.87 733.52 853.25 734.93
  C 842.63 740.64 838.80 747.19 830.96 759.15
  Q 813.82 785.31 796.50 811.61
  L 781.45 833.69
  C 768.47 852.97 757.12 866.61 739.40 880.90
  C 732.30 886.63 726.71 879.91 727.74 872.75
  Q 730.01 857.01 733.63 844.25
  L 747.32 805.31
  Q 756.20 783.01 761.94 759.24
  C 765.49 744.56 763.50 730.32 748.14 723.71
  C 731.23 713.91 735.62 704.47 744.47 690.92
  C 758.85 668.89 735.36 648.40 713.90 656.70
  Q 701.10 661.65 699.62 675.50
  C 697.67 693.64 702.20 711.05 718.15 721.53
  Q 722.01 724.07 725.97 726.48
  Z"
/>
<path fill="#97ec01" d="
  M 719.16 579.08
  Q 717.79 578.30 718.78 576.60
  Q 719.74 574.96 717.84 574.97
  Q 697.85 575.04 678.62 574.98
  Q 675.46 574.97 675.39 574.99
  C 673.97 575.30 672.58 578.23 671.96 578.20
  C 685.87 549.25 698.40 520.12 704.62 488.43
  C 705.47 484.14 707.47 472.97 698.19 477.69
  Q 685.14 484.34 673.81 493.59
  Q 615.05 541.56 563.10 596.80
  Q 562.79 595.71 563.19 594.85
  Q 563.50 594.17 562.91 594.63
  L 561.79 595.49
  A 1.21 1.21 0.0 0 1 561.04 595.75
  L 521.10 595.75
  Q 520.66 595.75 520.38 595.41
  L 520.15 595.13
  Q 519.86 594.77 519.47 595.03
  L 515.48 597.74
  Q 574.15 527.07 645.25 469.32
  C 661.47 456.14 678.41 445.34 697.59 436.89
  C 727.16 423.87 746.30 441.89 745.19 471.59
  Q 743.09 527.83 719.16 579.08
  Z"
/>
<path fill="#ffffff" d="
  M 671.96 578.20
  Q 657.05 608.81 631.79 656.80
  C 628.84 662.41 625.40 663.43 619.16 662.06
  C 593.05 656.34 566.61 657.65 540.07 656.98
  C 532.43 656.78 520.67 657.86 519.21 650.76
  C 518.63 647.96 520.07 645.41 521.83 643.33
  Q 541.89 619.56 563.10 596.80
  Q 615.05 541.56 673.81 493.59
  Q 685.14 484.34 698.19 477.69
  C 707.47 472.97 705.47 484.14 704.62 488.43
  C 698.40 520.12 685.87 549.25 671.96 578.20
  Z"
/>
<path fill="#79bb05" d="
  M 719.16 579.08
  Q 715.00 588.11 710.45 597.22
  Q 662.84 692.51 609.96 785.00
  Q 608.74 785.79 607.60 784.38
  Q 607.28 783.99 606.78 783.99
  Q 583.58 784.02 560.38 783.99
  C 559.07 783.98 556.90 782.94 556.02 785.01
  Q 555.43 786.40 553.70 786.43
  Q 582.82 741.86 609.33 695.70
  C 611.09 692.63 612.66 690.77 612.85 686.98
  Q 612.87 686.46 612.56 686.04
  C 610.57 683.30 607.24 683.26 604.18 683.21
  Q 553.44 682.41 502.71 680.80
  C 494.43 680.53 488.68 682.65 483.75 689.01
  Q 449.66 732.97 418.43 778.98
  Q 418.54 778.00 416.82 778.96
  A 0.39 0.39 0.0 0 1 416.25 778.67
  L 416.21 778.40
  Q 416.15 777.97 415.72 777.98
  C 405.07 778.05 386.64 777.31 385.08 778.55
  Q 384.75 778.81 384.34 778.78
  L 383.50 778.73
  Q 385.19 774.30 387.90 770.37
  Q 413.39 733.42 438.45 696.17
  C 440.19 693.58 443.75 690.23 444.72 687.43
  C 446.22 683.06 442.17 680.90 438.37 680.93
  Q 324.06 681.83 242.25 683.47
  Q 231.21 683.69 224.71 692.04
  Q 221.88 695.68 220.50 696.67
  C 213.91 701.42 203.97 700.82 196.77 698.07
  C 187.82 694.66 183.93 688.94 181.97 679.79
  Q 180.42 672.59 181.00 668.73
  C 182.21 660.74 203.73 658.69 209.94 658.58
  C 244.76 658.00 279.34 656.66 314.06 655.30
  C 315.55 655.24 331.20 654.17 334.27 655.85
  Q 334.69 656.08 335.16 656.07
  Q 370.20 655.85 405.24 655.75
  C 420.72 655.71 439.32 656.24 452.25 656.20
  C 466.47 656.16 473.82 649.70 482.64 638.34
  Q 498.68 617.68 515.48 597.74
  L 519.47 595.03
  Q 519.86 594.77 520.15 595.13
  L 520.38 595.41
  Q 520.66 595.75 521.10 595.75
  L 561.04 595.75
  A 1.21 1.21 0.0 0 0 561.79 595.49
  L 562.91 594.63
  Q 563.50 594.17 563.19 594.85
  Q 562.79 595.71 563.10 596.80
  Q 541.89 619.56 521.83 643.33
  C 520.07 645.41 518.63 647.96 519.21 650.76
  C 520.67 657.86 532.43 656.78 540.07 656.98
  C 566.61 657.65 593.05 656.34 619.16 662.06
  C 625.40 663.43 628.84 662.41 631.79 656.80
  Q 657.05 608.81 671.96 578.20
  C 672.58 578.23 673.97 575.30 675.39 574.99
  Q 675.46 574.97 678.62 574.98
  Q 697.85 575.04 717.84 574.97
  Q 719.74 574.96 718.78 576.60
  Q 717.79 578.30 719.16 579.08
  Z"
/>
<circle fill="#000000" cx="426.76" cy="603.44" r="3.72"/>
<path fill="#000000" d="
  M 409.99 635.50
  C 400.65 642.50 390.26 638.54 388.00 627.58
  C 385.33 614.65 398.91 604.69 409.93 613.76
  Q 410.50 614.22 410.50 613.49
  L 410.50 601.75
  Q 410.50 601.25 411.00 601.25
  L 415.75 601.25
  Q 416.25 601.25 416.25 601.75
  L 416.25 637.84
  Q 416.25 638.50 415.59 638.50
  L 411.00 638.50
  Q 410.50 638.50 410.50 638.00
  L 410.50 635.75
  Q 410.50 635.11 409.99 635.50
  Z
  M 402.3980 633.8964
  A 9.24 8.33 88.4 0 0 410.4668 624.4274
  A 9.24 8.33 88.4 0 0 401.8820 615.4236
  A 9.24 8.33 88.4 0 0 393.8132 624.8926
  A 9.24 8.33 88.4 0 0 402.3980 633.8964
  Z"
/>
<path fill="#000000" d="
  M 325.46 629.91
  C 327.71 620.65 306.28 626.12 307.21 612.49
  C 308.07 599.89 329.33 599.63 331.20 612.16
  A 0.52 0.52 0.0 0 1 330.69 612.75
  L 325.56 612.75
  Q 325.02 612.75 324.80 612.26
  C 319.91 601.70 306.42 613.33 316.67 617.00
  C 323.87 619.58 335.52 621.62 330.68 632.52
  C 326.29 642.42 308.42 640.86 306.97 629.35
  Q 306.89 628.75 307.49 628.75
  L 312.77 628.75
  Q 313.31 628.75 313.40 629.28
  C 314.48 635.34 324.08 635.63 325.46 629.91
  Z"
/>
<path fill="#000000" d="
  M 338.45 615.47
  L 336.52 615.59
  Q 336.00 615.62 336.00 615.10
  L 336.00 611.38
  Q 336.00 610.75 336.63 610.75
  L 338.63 610.75
  Q 339.25 610.75 339.25 610.12
  L 339.25 604.25
  Q 339.25 603.75 339.75 603.75
  L 344.43 603.75
  Q 345.04 603.75 345.04 604.36
  L 344.98 610.24
  A 0.51 0.51 0.0 0 0 345.49 610.75
  L 351.21 610.75
  Q 351.73 610.75 351.74 611.28
  L 351.80 614.88
  Q 351.81 615.50 351.19 615.50
  L 345.75 615.50
  Q 345.10 615.50 345.08 616.15
  Q 344.91 622.05 345.10 630.80
  C 345.18 634.39 348.83 633.79 351.26 633.75
  Q 351.76 633.75 351.76 634.25
  L 351.76 637.99
  Q 351.76 638.44 351.31 638.47
  C 343.93 638.95 339.12 638.59 339.29 629.75
  Q 339.41 622.94 339.17 616.13
  Q 339.14 615.43 338.45 615.47
  Z"
/>
<path fill="#97ec01" d="
  M 897.69 651.31
  C 891.34 647.02 889.11 638.78 888.86 631.23
  C 888.27 612.68 907.48 598.65 924.05 610.54
  C 934.95 618.37 937.92 633.75 929.75 644.65
  C 922.54 654.26 907.74 658.12 897.69 651.31
  Z"
/>
<path fill="#000000" d="
  M 463.85 624.67
  A 14.43 14.43 0.0 0 1 449.42 639.10
  A 14.43 14.43 0.0 0 1 434.99 624.67
  A 14.43 14.43 0.0 0 1 449.42 610.24
  A 14.43 14.43 0.0 0 1 463.85 624.67
  Z
  M 449.0988 633.9354
  A 9.27 8.26 91.8 0 0 457.6459 624.9295
  A 9.27 8.26 91.8 0 0 449.6812 615.4046
  A 9.27 8.26 91.8 0 0 441.1341 624.4105
  A 9.27 8.26 91.8 0 0 449.0988 633.9354
  Z"
/>
<path fill="#000000" d="
  M 375.84 636.18
  C 367.94 642.36 356.83 638.10 356.76 627.48
  Q 356.71 619.39 356.77 611.25
  Q 356.77 610.75 357.27 610.75
  L 361.98 610.75
  Q 362.58 610.75 362.60 611.35
  Q 362.86 619.08 362.71 626.74
  C 362.53 636.08 376.27 637.02 376.25 625.60
  Q 376.24 618.46 376.26 611.31
  Q 376.26 610.75 376.82 610.75
  L 381.62 610.75
  Q 382.25 610.75 382.25 611.38
  L 382.25 637.99
  Q 382.25 638.47 381.76 638.48
  L 376.88 638.55
  A 0.61 0.60 -87.9 0 1 376.27 637.89
  L 376.40 636.48
  A 0.35 0.34 -16.4 0 0 375.84 636.18
  Z"
/>
<rect fill="#000000" x="423.75" y="610.75" width="6.00" height="27.82" rx="0.33"/>
<ellipse fill="#ffffff" cx="0.00" cy="0.00" transform="translate(402.14,624.66) rotate(88.4)" rx="9.24" ry="8.33"/>
<ellipse fill="#ffffff" cx="0.00" cy="0.00" transform="translate(449.39,624.67) rotate(91.8)" rx="9.27" ry="8.26"/>
<path fill="#97ec01" d="
  M 748.14 723.71
  Q 746.29 724.98 744.94 724.98
  Q 736.32 725.01 727.64 725.00
  Q 727.13 725.00 726.89 725.44
  Q 726.45 726.23 725.97 726.48
  Q 722.01 724.07 718.15 721.53
  C 702.20 711.05 697.67 693.64 699.62 675.50
  Q 701.10 661.65 713.90 656.70
  C 735.36 648.40 758.85 668.89 744.47 690.92
  C 735.62 704.47 731.23 713.91 748.14 723.71
  Z"
/>
<path fill="#97ec01" d="
  M 1053.71 725.39
  Q 1031.81 724.69 1010.02 725.03
  C 1019.78 702.26 1039.37 687.44 1061.12 676.96
  Q 1066.81 674.22 1071.27 673.88
  C 1076.91 673.46 1085.12 674.85 1088.38 679.97
  C 1094.60 689.73 1084.35 694.58 1077.19 698.91
  Q 1060.61 708.94 1053.71 725.39
  Z"
/>
<path fill="#97ec01" d="
  M 1131.00 726.37
  Q 1117.89 727.43 1104.48 726.99
  C 1102.90 726.94 1101.97 727.66 1101.47 729.04
  C 1099.09 726.02 1097.14 729.09 1095.38 730.54
  Q 1095.93 728.97 1095.63 727.62
  Q 1095.52 727.10 1094.99 727.10
  L 1071.72 727.10
  Q 1075.80 722.77 1079.58 717.46
  C 1086.47 707.79 1092.68 700.34 1100.55 692.56
  C 1106.18 686.99 1113.90 682.52 1121.11 687.45
  Q 1129.06 692.88 1129.66 702.68
  Q 1130.34 713.74 1131.00 726.37
  Z"
/>
<path fill="#97ec01" d="
  M 901.49 730.56
  L 900.48 727.58
  Q 900.29 727.02 899.70 727.02
  L 860.66 726.95
  A 0.76 0.75 12.0 0 0 859.97 727.39
  Q 859.37 728.71 858.21 729.21
  C 858.83 727.25 859.46 725.34 859.68 723.24
  C 861.49 706.36 871.48 676.18 895.44 689.72
  C 909.66 697.75 906.60 717.04 901.49 730.56
  Z"
/>
<path fill="#79bb05" d="
  M 1108.38 780.29
  Q 1109.48 779.77 1109.27 779.62
  A 0.90 0.88 62.2 0 1 1109.75 778.00
  L 1132.53 778.00
  Q 1132.57 778.00 1132.59 778.03
  Q 1132.67 778.16 1132.77 778.29
  Q 1133.01 778.57 1133.35 778.44
  L 1133.83 778.26
  C 1141.90 795.69 1174.65 782.70 1185.90 775.96
  C 1211.61 760.55 1238.19 739.39 1255.66 715.68
  C 1261.99 707.10 1271.69 715.73 1269.25 723.75
  C 1268.29 726.87 1265.70 729.73 1263.49 732.48
  C 1244.63 755.81 1221.58 779.80 1194.99 794.77
  C 1169.24 809.26 1122.82 814.90 1108.38 780.29
  Z"
/>
<path fill="#79bb05" d="
  M 748.14 723.71
  C 763.50 730.32 765.49 744.56 761.94 759.24
  Q 756.20 783.01 747.32 805.31
  L 709.04 805.17
  C 717.65 782.57 725.17 766.26 730.88 746.83
  C 733.34 738.43 732.74 731.96 725.97 726.48
  Q 726.45 726.23 726.89 725.44
  Q 727.13 725.00 727.64 725.00
  Q 736.32 725.01 744.94 724.98
  Q 746.29 724.98 748.14 723.71
  Z"
/>
<path fill="#79bb05" d="
  M 1053.71 725.39
  C 1051.95 729.62 1048.23 736.86 1056.26 737.70
  C 1060.28 738.12 1068.71 730.12 1071.72 727.10
  L 1094.99 727.10
  Q 1095.52 727.10 1095.63 727.62
  Q 1095.93 728.97 1095.38 730.54
  Q 1085.03 743.57 1072.93 755.03
  C 1059.32 767.92 1048.20 776.81 1029.50 776.68
  Q 1014.99 776.57 1009.87 763.20
  C 1008.24 758.93 1006.57 752.18 1000.85 758.32
  Q 981.19 779.44 959.62 798.58
  Q 959.24 797.65 959.80 796.53
  Q 960.05 796.01 959.48 796.01
  C 954.10 795.99 948.57 796.38 943.25 795.51
  Q 941.15 795.16 938.45 796.54
  Q 950.66 785.77 962.78 775.14
  C 976.58 763.05 981.88 745.65 1001.38 745.26
  C 1003.48 745.22 1005.20 744.33 1005.51 742.24
  Q 1006.99 732.19 1010.02 725.03
  Q 1031.81 724.69 1053.71 725.39
  Z"
/>
<path fill="#79bb05" d="
  M 1131.00 726.37
  Q 1132.25 747.48 1132.31 770.19
  Q 1132.32 773.59 1133.83 778.26
  L 1133.35 778.44
  Q 1133.01 778.57 1132.77 778.29
  Q 1132.67 778.16 1132.59 778.03
  Q 1132.57 778.00 1132.53 778.00
  L 1109.75 778.00
  A 0.90 0.88 62.2 0 0 1109.27 779.62
  Q 1109.48 779.77 1108.38 780.29
  Q 1103.25 767.03 1102.94 752.55
  C 1102.78 744.56 1102.85 736.96 1101.47 729.04
  C 1101.97 727.66 1102.90 726.94 1104.48 726.99
  Q 1117.89 727.43 1131.00 726.37
  Z"
/>
<path fill="#79bb05" d="
  M 901.49 730.56
  Q 894.33 750.13 885.90 769.92
  Q 879.07 785.95 876.85 802.92
  Q 876.00 801.61 875.10 801.63
  Q 864.68 801.86 854.25 801.72
  Q 853.77 801.71 853.40 802.02
  L 852.84 802.47
  Q 852.39 802.84 852.07 802.35
  L 851.19 800.95
  Q 850.46 785.99 850.82 770.76
  Q 850.84 770.24 850.32 770.32
  Q 844.18 771.35 841.46 775.95
  Q 830.13 795.10 818.77 814.23
  L 818.48 813.02
  Q 818.39 812.61 818.01 812.80
  Q 817.40 813.10 817.10 812.38
  Q 816.90 811.89 816.37 811.91
  Q 806.42 812.30 796.50 811.61
  Q 813.82 785.31 830.96 759.15
  C 838.80 747.19 842.63 740.64 853.25 734.93
  C 855.87 733.52 857.04 731.71 858.21 729.21
  Q 859.37 728.71 859.97 727.39
  A 0.76 0.75 12.0 0 1 860.66 726.95
  L 899.70 727.02
  Q 900.29 727.02 900.48 727.58
  L 901.49 730.56
  Z"
/>
<path fill="#659908" d="
  M 418.43 778.98
  Q 402.83 803.09 393.16 816.89
  C 391.76 818.90 389.15 821.73 386.34 821.58
  Q 382.16 821.35 381.33 816.66
  C 379.14 804.17 379.04 790.52 383.50 778.73
  L 384.34 778.78
  Q 384.75 778.81 385.08 778.55
  C 386.64 777.31 405.07 778.05 415.72 777.98
  Q 416.15 777.97 416.21 778.40
  L 416.25 778.67
  A 0.39 0.39 0.0 0 0 416.82 778.96
  Q 418.54 778.00 418.43 778.98
  Z"
/>
<path fill="#659908" d="
  M 609.96 785.00
  L 552.57 884.51
  Q 552.20 883.59 552.73 882.94
  Q 553.04 882.55 552.65 882.24
  Q 551.98 881.71 551.23 881.25
  Q 550.84 881.00 550.37 881.00
  Q 524.00 881.00 497.63 880.99
  C 496.60 880.99 495.38 880.18 494.30 881.46
  Q 493.96 881.85 493.65 881.43
  L 493.09 880.67
  L 553.70 786.43
  Q 555.43 786.40 556.02 785.01
  C 556.90 782.94 559.07 783.98 560.38 783.99
  Q 583.58 784.02 606.78 783.99
  Q 607.28 783.99 607.60 784.38
  Q 608.74 785.79 609.96 785.00
  Z"
/>
<path fill="#659908" d="
  M 959.62 798.58
  Q 935.87 819.98 908.96 837.01
  C 871.61 860.65 852.88 837.75 851.19 800.95
  L 852.07 802.35
  Q 852.39 802.84 852.84 802.47
  L 853.40 802.02
  Q 853.77 801.71 854.25 801.72
  Q 864.68 801.86 875.10 801.63
  Q 876.00 801.61 876.85 802.92
  Q 875.97 810.25 877.13 817.17
  C 878.79 827.07 887.84 825.11 895.20 822.62
  C 911.69 817.02 925.16 807.78 938.45 796.54
  Q 941.15 795.16 943.25 795.51
  C 948.57 796.38 954.10 795.99 959.48 796.01
  Q 960.05 796.01 959.80 796.53
  Q 959.24 797.65 959.62 798.58
  Z"
/>
<path fill="#659908" d="
  M 747.32 805.31
  L 733.63 844.25
  L 697.14 844.06
  Q 701.80 824.21 709.04 805.17
  L 747.32 805.31
  Z"
/>
<path fill="#659908" d="
  M 796.50 811.61
  Q 806.42 812.30 816.37 811.91
  Q 816.90 811.89 817.10 812.38
  Q 817.40 813.10 818.01 812.80
  Q 818.39 812.61 818.48 813.02
  L 818.77 814.23
  L 806.27 835.00
  Q 805.34 834.50 805.73 833.68
  Q 805.94 833.22 805.44 833.20
  C 802.55 833.08 784.55 832.27 783.28 833.21
  Q 782.98 833.44 782.61 833.50
  L 781.45 833.69
  L 796.50 811.61
  Z"
/>
<path fill="#4f740c" d="
  M 806.27 835.00
  C 794.86 854.42 780.78 872.63 763.80 887.39
  C 755.83 894.32 749.08 900.51 739.75 904.22
  C 722.01 911.25 702.13 901.07 695.96 883.98
  C 691.78 872.39 693.91 856.49 697.14 844.06
  L 733.63 844.25
  Q 730.01 857.01 727.74 872.75
  C 726.71 879.91 732.30 886.63 739.40 880.90
  C 757.12 866.61 768.47 852.97 781.45 833.69
  L 782.61 833.50
  Q 782.98 833.44 783.28 833.21
  C 784.55 832.27 802.55 833.08 805.44 833.20
  Q 805.94 833.22 805.73 833.68
  Q 805.34 834.50 806.27 835.00
  Z"
/>
<path fill="#4f740c" d="
  M 493.09 880.67
  L 493.65 881.43
  Q 493.96 881.85 494.30 881.46
  C 495.38 880.18 496.60 880.99 497.63 880.99
  Q 524.00 881.00 550.37 881.00
  Q 550.84 881.00 551.23 881.25
  Q 551.98 881.71 552.65 882.24
  Q 553.04 882.55 552.73 882.94
  Q 552.20 883.59 552.57 884.51
  Q 527.54 927.27 502.38 969.94
  C 492.81 986.17 486.74 996.20 476.94 1009.42
  C 471.90 1016.23 465.51 1020.98 456.82 1020.66
  C 440.41 1020.05 434.41 1001.75 435.12 988.19
  Q 435.45 982.03 438.92 973.19
  Q 446.78 953.15 458.67 934.42
  Q 480.68 899.77 493.09 880.67
  Z"
/>
</svg>
