<?xml version="1.0" encoding="utf-8"?>
<!-- Generator: Adobe Illustrator 24.1.2, SVG Export Plug-In . SVG Version: 6.00 Build 0)  -->
<svg version="1.1" id="Capa_1" xmlns="http://www.w3.org/2000/svg" xmlns:xlink="http://www.w3.org/1999/xlink" x="0px" y="0px"
	 viewBox="0 0 390 221" style="enable-background:new 0 0 390 221;" xml:space="preserve">
<style type="text/css">
	.st0{fill:none;stroke:#81C704;stroke-width:2;}
	.st1{fill:none;stroke:#659909;stroke-width:2;}
	.st2{fill:#8CDA02;}
	.st3{fill:#76B406;}
	.st4{fill:#547D0B;}
</style>
<g>
	<path vector-effect="non-scaling-stroke" class="st0" d="M181.1,80.6c-4-1.7-8.3-2.2-13.1-1.5c-1.6,0.3-2-0.3-1.1-1.7
		c0.4-0.7,0.7-1.8,0.9-3.3"/>
	<path vector-effect="non-scaling-stroke" class="st0" d="M122.3,83.4l-1.9-1.4c-0.3-0.2-0.6-0.3-1-0.3c-3.6,0.3-6.9,0-9.9-0.9"/>
	<path vector-effect="non-scaling-stroke" class="st1" d="M142.8,150l-17.5,0.1c-0.3,0-0.5-0.1-0.7-0.4c-0.3-0.6-0.7-0.9-1.4-1.1"/>
	<path vector-effect="non-scaling-stroke" class="st1" d="M198.4,145c-0.2-0.6-0.4-0.5-0.8,0.6c-0.1,0.2-0.2,0.3-0.4,0.2
		c-2.4-1.1-6.5-0.9-9.2-0.6c-0.3,0-0.6-0.1-0.8-0.3l-1.3-1.3"/>
	<path vector-effect="non-scaling-stroke" class="st1" d="M219.2,151.8l-7.9-1.5"/>
</g>
<path class="st2" d="M181.1,80.6c-4-1.7-8.3-2.2-13.1-1.5c-1.6,0.3-2-0.3-1.1-1.7c0.4-0.7,0.7-1.8,0.9-3.3
	c6.9-13.4,14.2-27.6,17.9-42.4c0.5-2.1,0.8-4,0.8-5.8c0-0.7-0.6-1.3-1.3-1.3c-0.2,0-0.4,0.1-0.6,0.1c-4,2-7.5,4.3-10.6,6.9
	c-18.7,15.5-35.9,32.8-51.7,51.7l-1.9-1.4c-0.3-0.2-0.6-0.3-1-0.3c-3.6,0.3-6.9,0-9.9-0.9c17.7-23.5,37.4-43.8,58.9-60.9
	c4.2-3.3,9.4-6.3,15.6-9c11.1-4.8,16.7,2.5,16.2,12.6C199.3,45.2,191.1,61,181.1,80.6z"/>
<circle cx="90.3" cy="68.4" r="1.3"/>
<path d="M84.9,71.2c-0.2-0.9-0.2-1.8-0.2-2.7c0-0.6,0.5-1,1-1s1,0.5,1,1v11.3c0,0.4-0.2,0.6-0.6,0.7c-0.5,0.1-0.9,0-1.3-0.5
	c-0.2-0.3-0.5-0.4-0.8-0.2C74.4,85,75,66,84.3,71.7c0.2,0.1,0.5,0.1,0.6-0.2C84.9,71.4,85,71.3,84.9,71.2z M82,78.9
	c1.6-0.1,2.8-1.5,2.8-3.3c0,0,0,0,0,0c-0.1-1.8-1.4-3.1-3-3.1c0,0,0,0,0,0c-1.6,0.1-2.8,1.5-2.8,3.3c0,0,0,0,0,0
	C79,77.6,80.4,79,82,78.9C82,78.9,82,78.9,82,78.9z"/>
<path d="M52.4,78.8c1.3,0.6,2.3,0.1,3-1.4c0.1-0.3,0.1-0.7-0.2-0.9c-1.6-1.5-3.9-1.3-5.2-2.5c-4.7-4.2,5.2-8.9,7.1-3.3
	c0.1,0.4,0,0.7-0.4,0.8c-0.9,0.3-1.7,0-2.2-0.9c-0.2-0.3-0.5-0.5-0.8-0.6c-1.4-0.4-2.2,0.1-2.6,1.4c-0.1,0.3,0,0.6,0.3,0.8
	c1.3,1,2.8,1.6,4.4,1.9c0.3,0.1,0.6,0.2,0.8,0.5c3.7,4.8-3.6,8.2-7.5,3.8c-0.3-0.4-0.3-1,0.1-1.3c0.2-0.2,0.5-0.3,0.7-0.2
	c0.7,0.1,1.3,0.5,1.7,1.1C51.8,78.4,52.1,78.6,52.4,78.8z"/>
<path d="M62.7,78.6l1.5,0.4c0.4,0.1,0.6,0.5,0.5,0.9c-0.1,0.2-0.3,0.4-0.5,0.5c-5.8,1.2-3.4-5.1-4.6-8c-0.1-0.3-0.1-0.5,0-0.8
	l0.9-2.8c0.2-0.5,0.5-0.6,0.9-0.5l0.3,0.1c0.3,0.1,0.5,0.4,0.5,0.8c-0.2,1.4,0.4,2,1.8,1.8c0.3,0,0.6,0.2,0.6,0.5c0,0,0,0,0,0.1V72
	c0,0.3-0.2,0.5-0.5,0.5l-1.2,0.1c-0.5,0-0.7,0.3-0.7,0.8l0,4.7C62.2,78.3,62.4,78.5,62.7,78.6z"/>
<ellipse transform="matrix(0.184 -0.9829 0.9829 0.184 133.8219 316.7092)" class="st2" cx="257.6" cy="77.8" rx="8.4" ry="7.8"/>
<path d="M74.9,71.3c0.1,0.1,0.1,0.2,0.1,0.3v8.2c0,0.4-0.2,0.6-0.6,0.7c-0.5,0.1-1,0-1.4-0.3c-0.3-0.2-0.7-0.3-1-0.1
	c-2.2,1.1-4,0.6-5.5-1.5c-0.1-0.2-0.2-0.4-0.2-0.6l-0.2-6.5c0-0.5,0.2-0.7,0.8-0.7l0.7,0.1c0.4,0.1,0.6,0.3,0.6,0.7
	c0,2.2-1.1,8.6,3.5,7c0.8-0.3,1.4-1.1,1.3-1.9c0-1.6-0.1-3.2,0-4.8c0-0.3,0.1-0.6,0.4-0.9C73.8,70.6,74.3,70.7,74.9,71.3z"/>
<path d="M103.1,75.7c0,2.7-2.2,4.9-4.9,4.9s-4.9-2.2-4.9-4.9s2.2-4.9,4.9-4.9S103.1,73,103.1,75.7z M97.9,78.9
	c1.6,0.1,2.9-1.2,3.1-3c0.1-1.8-1-3.3-2.6-3.4c-1.6-0.1-2.9,1.2-3.1,3C95.2,77.3,96.4,78.8,97.9,78.9z"/>
<path d="M90.1,71l0.6,0c0.5,0,0.8,0.4,0.8,0.8l0,7.8c0,0.5-0.4,0.8-0.8,0.8l-0.6,0c-0.5,0-0.8-0.4-0.8-0.8l0-7.8
	C89.3,71.4,89.6,71,90.1,71z"/>
<path class="st3" d="M167.8,74.1c-0.2,1.6-0.5,2.7-0.9,3.3c-0.9,1.4-0.5,2,1.1,1.7c4.8-0.8,9.1-0.3,13.1,1.5
	c-12.2,23.4-25,46.5-38.3,69.4l-17.5,0.1c-0.3,0-0.5-0.1-0.7-0.4c-0.3-0.6-0.7-0.9-1.4-1.1c10.6-16.2,20.9-32.6,30.8-49.3
	c0.2-0.3,0.5-1.5,0.5-1.8c0-1.1-0.5-1.6-1.6-1.6c-12.7-0.2-25.4-0.5-38.1-0.9c-1.8-0.1-4,2-5.2,3.6c-10.9,14.1-21.2,28.7-30.9,43.8
	c-1.1,1.7-2.3,1.8-3.8,0.4c-0.2-0.2-0.4-0.9-0.6-2c-1-6.9,0.4-11.6,4.6-17.6c6-8.7,11.9-17.4,17.8-26.1c0.2-0.3,0.1-0.7-0.1-0.9
	c-1.9-1.6-3.9-1-6-1C69.7,95.4,48.9,95.6,28,96c-4.3,0.1-4.8,0.5-8,3.7c-5.5,5.4-13.8,0.6-14.4-7c-0.4-4.8,5.3-5.1,8.9-5.2
	c7.2-0.2,16.9-0.5,29-0.9c18-0.7,36.2,0,54.3-0.1c5.5-0.1,8.7-1.4,11.7-5.7c3,0.9,6.4,1.2,9.9,0.9c0.3,0,0.7,0.1,1,0.3l1.9,1.4
	c-0.5,2.2,0.6,3.4,3.2,3.4c11,0.2,21.8-0.1,32.5,2C161,89.4,166.4,76.7,167.8,74.1z"/>
<path class="st3" d="M198.4,145c-0.2-0.6-0.4-0.5-0.8,0.6c-0.1,0.2-0.2,0.3-0.4,0.2c-2.4-1.1-6.5-0.9-9.2-0.6
	c-0.3,0-0.6-0.1-0.8-0.3l-1.3-1.3c3-8.2,6.1-16.4,9.2-24.6c1.3-3.4,1-6.9-2.4-8.6c-4.6-2.4-7.3-6.4-8.1-11.9
	c-2.3-16.4,17.2-14.7,17-4.7c-0.1,4.7-7.3,9.8-2.7,14.2c1.8,1.8,4.4,2.6,5.8,4.4C209.6,118.6,202,136.5,198.4,145z"/>
<path class="st3" d="M219.2,151.8l-7.9-1.5c7.6-11.1,15-22.3,22.2-33.5c1-1.6,6-3,6.2-5.8c0.4-5.2,3.7-16.7,11-13.5
	c10.4,4.6,1.9,20-1.4,27.1c-2,4.3-8.5,23.4,2.6,19.5c9.6-3.4,17.3-10.8,24.4-17.3c5-4.7,5.4-8.6,13.3-9.6c0.3,0,0.6-0.3,0.6-0.6
	c1.8-11.5,10.8-19.5,20.7-23.5c5.1-2,13.2,3.2,5.6,7.3c-4.7,2.5-8.1,6.3-10.2,11.4c-0.6,1.5-0.2,2.4,1.1,2.9c0.3,0.1,0.6,0.1,0.9,0
	c2.6-1.2,4.5-2.6,5.6-4.3c1.1-1.7,4-5.2,8.5-10.4c5-5.8,10.2-3.3,10.8,3.8c0.8,9.8,1.1,17,1,21.6c-0.3,11.4,14.3,5,19.3,2.1
	c9.2-5.4,17.1-12.3,23.6-20.6c0.7-0.8,1.8-1,2.7-0.5c3.5,2.2,1.2,4.6-0.7,7.1c-5.9,7.5-12.7,13.9-20.5,19.4
	c-10.9,7.5-30.5,9.9-33.9-7.4c-0.9-4.5-0.5-8.8-1.1-13.3c-0.1-0.5-0.5-0.8-1-0.7c-0.2,0-0.4,0.1-0.5,0.3c-5,6.1-12,14.4-19.6,16.3
	c-6.1,1.5-9.9-0.6-11.3-6.2c-0.1-0.5-0.7-0.9-1.2-0.7c-0.2,0-0.4,0.2-0.5,0.3c-9.6,10.7-20.5,20-32.6,28
	c-19,12.5-20.4-11.5-19.9-22.6c0-0.4-0.1-0.5-0.5-0.4c-1.3,0.3-2.2,0.8-2.6,1.4C229,135.7,224.2,143.8,219.2,151.8z"/>
<path class="st4" d="M185.9,143.6l1.3,1.3c0.2,0.2,0.5,0.3,0.8,0.3c2.7-0.3,6.8-0.6,9.2,0.6c0.2,0.1,0.4,0,0.4-0.2
	c0.3-1,0.6-1.2,0.8-0.6c-1.2,3.4-6,17.1-3.1,19.5c0.7,0.6,1.7,0.6,2.5,0c5.3-4.1,9.7-8.9,13.4-14.3l7.9,1.5
	c-5,7.8-18,24.1-28.2,20.6C178.7,168.2,182.5,154,185.9,143.6z"/>
<path class="st4" d="M123.2,148.7c0.7,0.1,1.1,0.5,1.4,1.1c0.1,0.3,0.4,0.4,0.7,0.4l17.5-0.1c-10.2,17.7-20.7,35.5-31.4,53.3
	c-2.2,3.7-5.8,9.2-10.5,9.1c-3.1-0.1-5.3-1.9-6.4-4.9c-1.6-4.3-1.3-8.8,1.1-13.6C103.2,178.2,113.7,163.5,123.2,148.7z"/>
</svg>
