<?xml version="1.0" encoding="UTF-8" standalone="no"?>
<!DOCTYPE svg PUBLIC "-//W3C//DTD SVG 1.1//EN" "http://www.w3.org/Graphics/SVG/1.1/DTD/svg11.dtd">
<svg xmlns="http://www.w3.org/2000/svg" version="1.1" viewBox="0.00 0.00 500.00 500.00">
<g stroke-width="2.00" fill="none" stroke-linecap="butt">
<path stroke="#81c704" vector-effect="non-scaling-stroke" d="
  M 238.06 220.60
  Q 232.11 218.00 224.98 219.13
  Q 222.53 219.51 223.88 217.43
  Q 224.52 216.44 224.83 214.09"
/>
<path stroke="#81c704" vector-effect="non-scaling-stroke" d="
  M 179.31 223.35
  L 177.44 221.97
  A 1.46 1.43 -28.5 0 0 176.47 221.69
  Q 171.10 222.15 166.53 220.77"
/>
<path stroke="#659909" vector-effect="non-scaling-stroke" d="
  M 199.75 290.01
  L 182.27 290.15
  Q 181.80 290.15 181.60 289.73
  Q 181.19 288.84 180.19 288.67"
/>
<path stroke="#659909" vector-effect="non-scaling-stroke" d="
  M 255.44 284.99
  Q 255.15 284.03 254.69 285.55
  Q 254.58 285.90 254.25 285.74
  C 251.84 284.59 247.77 284.88 245.04 285.17
  Q 244.56 285.22 244.21 284.88
  L 242.89 283.59"
/>
<path stroke="#659909" vector-effect="non-scaling-stroke" d="
  M 276.16 291.79
  L 268.23 290.26"
/>
</g>
<path fill="#8cda02" d="
  M 238.06 220.60
  Q 232.11 218.00 224.98 219.13
  Q 222.53 219.51 223.88 217.43
  Q 224.52 216.44 224.83 214.09
  C 231.74 200.68 239.03 186.47 242.74 171.70
  Q 243.52 168.57 243.49 165.94
  A 1.33 1.32 76.2 0 0 241.57 164.77
  Q 235.62 167.81 230.96 171.68
  Q 202.89 194.98 179.31 223.35
  L 177.44 221.97
  A 1.46 1.43 -28.5 0 0 176.47 221.69
  Q 171.10 222.15 166.53 220.77
  Q 193.11 185.47 225.42 159.92
  Q 231.75 154.92 241.03 150.91
  C 252.08 146.13 257.72 153.41 257.27 163.50
  C 256.29 185.21 248.09 201.04 238.06 220.60
  Z"
/>
<circle fill="#000000" cx="147.34" cy="208.35" r="1.30"/>
<path fill="#000000" d="
  M 141.94 211.22
  Q 141.67 209.93 141.75 208.48
  A 1.00 1.00 0.0 0 1 143.75 208.54
  L 143.75 219.79
  Q 143.75 220.38 143.18 220.51
  Q 142.40 220.68 141.91 220.03
  Q 141.57 219.58 141.08 219.85
  C 131.42 224.98 132.03 206.03 141.25 211.70
  A 0.46 0.46 0.0 0 0 141.94 211.22
  Z
  M 138.9669 218.9079
  A 3.19 2.87 87.9 0 0 141.7181 215.6148
  A 3.19 2.87 87.9 0 0 138.7331 212.5321
  A 3.19 2.87 87.9 0 0 135.9819 215.8252
  A 3.19 2.87 87.9 0 0 138.9669 218.9079
  Z"
/>
<path fill="#000000" d="
  M 109.44 218.75
  Q 111.46 219.58 112.43 217.36
  A 0.79 0.78 -56.0 0 0 112.26 216.48
  C 110.68 214.97 108.39 215.21 107.08 214.02
  C 102.43 209.84 112.28 205.09 114.20 210.76
  Q 114.40 211.35 113.81 211.54
  Q 112.39 211.99 111.59 210.68
  A 1.46 1.46 0.0 0 0 110.77 210.05
  Q 108.73 209.46 108.13 211.47
  Q 107.97 211.98 108.40 212.30
  Q 110.36 213.74 112.80 214.20
  A 1.21 1.21 0.0 0 1 113.56 214.66
  C 117.23 219.44 109.95 222.90 106.10 218.50
  A 0.92 0.92 0.0 0 1 106.91 216.98
  Q 108.03 217.12 108.64 218.09
  Q 108.93 218.55 109.44 218.75
  Z"
/>
<path fill="#000000" d="
  M 119.66 218.59
  L 121.14 219.01
  A 0.72 0.72 0.0 0 1 121.09 220.40
  C 115.26 221.60 117.72 215.33 116.44 212.37
  Q 116.26 211.96 116.41 211.54
  L 117.35 208.76
  Q 117.58 208.08 118.26 208.30
  L 118.54 208.39
  A 0.71 0.71 0.0 0 1 119.03 209.18
  Q 118.68 211.21 120.87 211.01
  A 0.58 0.57 -2.7 0 1 121.50 211.58
  L 121.50 211.96
  Q 121.50 212.43 121.03 212.46
  L 119.85 212.55
  Q 119.15 212.61 119.16 213.31
  L 119.20 217.98
  A 0.63 0.63 0.0 0 0 119.66 218.59
  Z"
/>
<ellipse fill="#8cda02" cx="0.00" cy="0.00" transform="translate(314.65,217.76) rotate(100.6)" rx="8.38" ry="7.81"/>
<path fill="#000000" d="
  M 131.87 211.28
  Q 132.00 211.42 132.00 211.61
  L 132.00 219.79
  Q 132.00 220.38 131.42 220.50
  Q 130.65 220.67 130.06 220.21
  A 0.90 0.89 49.9 0 0 129.09 220.12
  Q 125.83 221.80 123.54 218.60
  Q 123.35 218.34 123.34 218.02
  L 123.12 211.51
  Q 123.09 210.72 123.87 210.84
  L 124.60 210.96
  Q 125.23 211.06 125.24 211.70
  C 125.27 213.85 124.15 220.33 128.71 218.74
  A 1.98 1.98 0.0 0 0 130.04 216.80
  Q 129.97 214.41 130.00 212.02
  A 1.30 1.28 67.6 0 1 130.35 211.16
  Q 131.05 210.39 131.87 211.28
  Z"
/>
<path fill="#000000" d="
  M 160.14 215.70
  A 4.95 4.95 0.0 0 1 155.19 220.65
  A 4.95 4.95 0.0 0 1 150.24 215.70
  A 4.95 4.95 0.0 0 1 155.19 210.75
  A 4.95 4.95 0.0 0 1 160.14 215.70
  Z
  M 154.9412 218.8918
  A 3.20 2.85 94.1 0 0 158.0127 215.9038
  A 3.20 2.85 94.1 0 0 155.3988 212.5082
  A 3.20 2.85 94.1 0 0 152.3273 215.4962
  A 3.20 2.85 94.1 0 0 154.9412 218.8918
  Z"
/>
<rect fill="#000000" x="-1.10" y="-4.73" transform="translate(147.35,215.74) rotate(0.3)" width="2.20" height="9.46" rx="0.82"/>
<path fill="#76b406" d="
  M 224.83 214.09
  Q 224.52 216.44 223.88 217.43
  Q 222.53 219.51 224.98 219.13
  Q 232.11 218.00 238.06 220.60
  Q 219.77 255.68 199.75 290.01
  L 182.27 290.15
  Q 181.80 290.15 181.60 289.73
  Q 181.19 288.84 180.19 288.67
  Q 196.15 264.36 211.00 239.38
  C 211.20 239.04 211.52 237.86 211.52 237.58
  Q 211.53 235.99 209.93 235.96
  Q 190.90 235.66 171.81 235.04
  C 170.05 234.98 167.81 236.99 166.57 238.59
  Q 150.21 259.74 135.64 282.38
  Q 134.00 284.94 131.88 282.76
  Q 131.57 282.44 131.33 280.79
  C 130.31 273.94 131.76 269.19 135.88 263.21
  Q 144.85 250.19 153.68 237.08
  A 0.68 0.68 0.0 0 0 153.55 236.19
  C 151.69 234.58 149.68 235.19 147.58 235.21
  Q 116.29 235.45 85.00 236.02
  C 80.65 236.10 80.22 236.53 77.00 239.71
  C 71.48 245.14 63.23 240.32 62.61 232.72
  C 62.22 227.91 67.93 227.63 71.50 227.54
  Q 82.30 227.28 100.51 226.62
  C 118.50 225.96 136.75 226.65 154.85 226.48
  C 160.32 226.43 163.54 225.05 166.53 220.77
  Q 171.10 222.15 176.47 221.69
  A 1.46 1.43 -28.5 0 1 177.44 221.97
  L 179.31 223.35
  Q 178.61 226.68 182.52 226.77
  C 193.50 227.01 204.27 226.66 215.00 228.80
  C 217.96 229.39 223.44 216.70 224.83 214.09
  Z"
/>
<path fill="#76b406" d="
  M 255.44 284.99
  Q 255.15 284.03 254.69 285.55
  Q 254.58 285.90 254.25 285.74
  C 251.84 284.59 247.77 284.88 245.04 285.17
  Q 244.56 285.22 244.21 284.88
  L 242.89 283.59
  Q 247.40 271.33 252.10 258.96
  C 253.39 255.56 253.12 252.10 249.73 250.32
  Q 242.79 246.68 241.62 238.45
  C 239.27 222.07 258.80 223.71 258.63 233.77
  C 258.55 238.45 251.38 243.56 255.90 247.99
  C 257.71 249.76 260.33 250.60 261.73 252.39
  C 266.62 258.62 258.96 276.52 255.44 284.99
  Z"
/>
<path fill="#76b406" d="
  M 276.16 291.79
  L 268.23 290.26
  Q 279.58 273.58 290.47 256.75
  C 291.52 255.13 296.46 253.78 296.66 250.99
  C 297.03 245.77 300.33 234.29 307.63 237.51
  C 317.99 242.09 309.53 257.47 306.28 264.62
  C 304.32 268.91 297.82 288.05 308.90 284.16
  C 318.46 280.80 326.23 273.36 333.25 266.82
  C 338.29 262.12 338.61 258.21 346.51 257.20
  A 0.76 0.75 -89.0 0 0 347.16 256.57
  C 348.92 245.05 357.98 237.05 367.83 233.12
  C 372.90 231.09 381.04 236.31 373.47 240.38
  Q 366.40 244.19 363.29 251.75
  Q 362.38 253.95 364.39 254.62
  Q 364.83 254.76 365.26 254.57
  Q 369.18 252.75 370.83 250.31
  Q 372.53 247.80 379.34 239.88
  C 384.29 234.11 389.53 236.60 390.09 243.68
  Q 391.24 258.33 391.04 265.25
  C 390.70 276.61 405.37 270.24 410.31 267.31
  Q 424.11 259.15 433.92 246.69
  A 2.07 2.06 -54.7 0 1 436.66 246.22
  C 440.14 248.45 437.85 250.85 435.93 253.30
  Q 427.13 264.51 415.42 272.66
  C 404.55 280.21 384.90 282.54 381.53 265.25
  C 380.65 260.74 380.99 256.45 380.41 251.95
  A 0.85 0.85 0.0 0 0 378.91 251.52
  C 373.88 257.58 366.92 265.95 359.26 267.80
  Q 350.10 270.02 347.98 261.56
  A 1.00 0.99 58.9 0 0 346.27 261.13
  Q 331.80 277.16 313.65 289.12
  C 294.68 301.61 293.22 277.63 293.80 266.50
  Q 293.83 265.96 293.30 266.08
  Q 291.30 266.54 290.74 267.52
  Q 283.69 279.85 276.16 291.79
  Z"
/>
<path fill="#547d0b" d="
  M 242.89 283.59
  L 244.21 284.88
  Q 244.56 285.22 245.04 285.17
  C 247.77 284.88 251.84 284.59 254.25 285.74
  Q 254.58 285.90 254.69 285.55
  Q 255.15 284.03 255.44 284.99
  C 254.21 288.38 249.47 302.07 252.36 304.49
  A 1.98 1.97 -44.0 0 0 254.84 304.53
  Q 262.73 298.38 268.23 290.26
  L 276.16 291.79
  C 271.21 299.61 258.12 315.92 247.95 312.40
  C 235.71 308.17 239.53 293.99 242.89 283.59
  Z"
/>
<path fill="#547d0b" d="
  M 180.19 288.67
  Q 181.19 288.84 181.60 289.73
  Q 181.80 290.15 182.27 290.15
  L 199.75 290.01
  Q 184.45 316.55 168.36 343.34
  C 166.14 347.04 162.58 352.58 157.87 352.40
  C 154.74 352.28 152.58 350.46 151.44 347.53
  Q 148.97 341.15 152.50 333.95
  C 160.24 318.16 170.70 303.48 180.19 288.67
  Z"
/>
</svg>
